<mxfile host="app.diagrams.net" modified="2022-03-04T16:51:02.196Z" agent="5.0 (Windows NT 10.0; Win64; x64) AppleWebKit/537.36 (KHTML, like Gecko) Chrome/98.0.4758.102 Safari/537.36 Edg/98.0.1108.62" etag="68U8le2erv1iwfAd83Av" version="16.5.3" type="github">
  <diagram id="8srUQ6h-z1yPip7Czp9r" name="Page-1">
    <mxGraphModel dx="1083" dy="803" grid="1" gridSize="10" guides="1" tooltips="1" connect="1" arrows="1" fold="1" page="1" pageScale="1" pageWidth="850" pageHeight="1100" math="0" shadow="0">
      <root>
        <mxCell id="0" />
        <mxCell id="1" parent="0" />
        <mxCell id="qZBtZzGpFIxgW2rruNNL-1" value="" style="shape=dataStorage;whiteSpace=wrap;html=1;fixedSize=1;" vertex="1" parent="1">
          <mxGeometry x="370" y="250" width="100" height="80" as="geometry" />
        </mxCell>
        <mxCell id="qZBtZzGpFIxgW2rruNNL-2" value="" style="shape=card;whiteSpace=wrap;html=1;" vertex="1" parent="1">
          <mxGeometry x="250" y="310" width="80" height="100" as="geometry" />
        </mxCell>
        <mxCell id="qZBtZzGpFIxgW2rruNNL-3" value="Actor" style="shape=umlActor;verticalLabelPosition=bottom;verticalAlign=top;html=1;outlineConnect=0;" vertex="1" parent="1">
          <mxGeometry x="610" y="360" width="30" height="60" as="geometry" />
        </mxCell>
      </root>
    </mxGraphModel>
  </diagram>
</mxfile>
